inDegrees=no
num_controls=7
num_derivatives=13
num_iterations=110
num_multipliers=7
num_parameters=0
num_slacks=7
num_states=26
objective=5.789343
objective_accelerations=0.332211
objective_balance=0.030687
objective_effort=0.398568
objective_height=4.961700
objective_ligament=0.066176
solver_duration=946.083091
status=Solve_Succeeded
success=true
DataType=double
version=3
OpenSimVersion=4.4-2022-07-23-0e9fedc
endheader
time	/jointset/ground_pelvis/pelvis_tilt/value	/jointset/ground_pelvis/pelvis_tx/value	/jointset/ground_pelvis/pelvis_ty/value	/jointset/hip_r/hip_flexion_r/value	/jointset/hip_r/hip_adduction_r/value	/jointset/hip_r/hip_rotation_r/value	/jointset/back/lumbar_extension/value	/jointset/patellofemoral_r/patellar_flexion_r/value	/jointset/knee_r/knee_flexion_r/value	/jointset/knee_r/knee_adduction_r/value	/jointset/knee_r/knee_rotation_r/value	/jointset/ankle_r/ankle_angle_r/value	/jointset/subtalar_r/subtalar_angle_r/value	/jointset/ground_pelvis/pelvis_tilt/speed	/jointset/ground_pelvis/pelvis_tx/speed	/jointset/ground_pelvis/pelvis_ty/speed	/jointset/hip_r/hip_flexion_r/speed	/jointset/hip_r/hip_adduction_r/speed	/jointset/hip_r/hip_rotation_r/speed	/jointset/back/lumbar_extension/speed	/jointset/patellofemoral_r/patellar_flexion_r/speed	/jointset/knee_r/knee_flexion_r/speed	/jointset/knee_r/knee_adduction_r/speed	/jointset/knee_r/knee_rotation_r/speed	/jointset/ankle_r/ankle_angle_r/speed	/jointset/subtalar_r/subtalar_angle_r/speed	/forceset/tau_hip_flexion_r	/forceset/tau_hip_adduction_r	/forceset/tau_hip_rotation_r	/forceset/tau_knee_flexion_r	/forceset/tau_ankle_angle_r	/forceset/tau_subtalar_angle_r	/forceset/tau_lumbar_extension	lambda_cid13_p0	lambda_cid14_p0	lambda_cid14_p1	lambda_cid14_p2	lambda_cid14_p3	lambda_cid14_p4	lambda_cid14_p5	/jointset/ground_pelvis/pelvis_tilt/accel	/jointset/ground_pelvis/pelvis_tx/accel	/jointset/ground_pelvis/pelvis_ty/accel	/jointset/hip_r/hip_flexion_r/accel	/jointset/hip_r/hip_adduction_r/accel	/jointset/hip_r/hip_rotation_r/accel	/jointset/back/lumbar_extension/accel	/jointset/patellofemoral_r/patellar_flexion_r/accel	/jointset/knee_r/knee_flexion_r/accel	/jointset/knee_r/knee_adduction_r/accel	/jointset/knee_r/knee_rotation_r/accel	/jointset/ankle_r/ankle_angle_r/accel	/jointset/subtalar_r/subtalar_angle_r/accel	gamma_cid13_p0	gamma_cid14_p0	gamma_cid14_p1	gamma_cid14_p2	gamma_cid14_p3	gamma_cid14_p4	gamma_cid14_p5
0.5	-0.06757149586134151	0.06556176130303727	0.8775301550889412	0.6086091088919429	-0.2278434693716622	-0.1456852420109706	-0.3071273650364954	0.6316077005519317	0.6316077005519042	0.0448141955544917	0.1744480002067004	0.2601150920886656	0.05888242981079479	-0.1768410158320968	-0.06185593837091993	-0.2712029612140734	1.18111995169922	-0.005076849326347769	0.2298067983474034	-0.6028363288222236	1.528322663495907	1.5283226634959	-0.2787953462675299	-0.0002988231471653267	0.6113355461601306	0.169849061674951	-0.05294899067075445	-0.01177770979114928	0.00589787726185085	-0.3301630871444543	0.05598988300250415	-0.01684156107929694	0.1194915391821452	-35.0389531325512	-24.7160858560993	-7.915320699294323	-2.534760231279327	4.777473065915544	-673.2909245574114	54.0843378087563	0.02383172963478443	0.2035121295285979	-0.3085294211243994	-0.7029711366132385	-0.06202019039629528	-0.5276904135964758	1.131217871572597	-0.9627843332068424	-0.9627843332068419	0.3464891489533395	-0.007115604821648821	-0.4044729352580113	-0.04950925231827991	-9.763031684031468e-08	-1.222289857253953e-07	5.73361245927259e-07	-1.080021695427545e-06	9.640779117181488e-09	-1.465662541466077e-07	8.973323804555337e-07
0.51	-0.06933863474206878	0.06495348329089581	0.8748032455803584	0.6203835569229087	-0.2278980190818956	-0.1434128495132294	-0.3130981947088964	0.646840596101689	0.6468405961018073	0.04204554652362823	0.1744447823179531	0.2662071827593087	0.06057720202906586	-0.1765646633212494	-0.05979025779502825	-0.2741186862035961	1.173604514985061	-0.005832304568957503	0.2246543215597968	-0.5912501738516642	1.518037880453986	1.51803788045398	-0.2749202441190317	-0.0003353800444119391	0.6070009781553535	0.1690796360315322	-0.05744127075082536	-0.01024033805580479	0.006495284937384782	-0.3328510903545186	0.05170617186701869	-0.01601624401391508	0.1237396067359838	-34.25439310959111	-26.18491503160752	-7.919128970912758	-2.41414651601459	5.295253906177764	-675.8557484751392	54.03361735260354	0.03284089169563392	0.209509927580445	-0.2740846060812129	-0.8006142286868432	-0.08233077018592369	-0.5117949202825783	1.184229077791703	-1.094091597129099	-1.094091597128726	0.4101608031410903	-0.0007032925976130379	-0.4601986545608865	-0.09456651623585378	-8.996937379376285e-08	-1.181860905671265e-07	4.907547427411823e-07	-1.048627320151387e-06	1.57325597838784e-08	-1.388602037587535e-07	8.291272601622405e-07
0.52	-0.07110234932166574	0.06436614486570957	0.8720489807082361	0.6320778937287994	-0.2279601278603691	-0.1411925355051422	-0.3189507798779849	0.6619640905596378	0.6619640905597234	0.03931607652532734	0.1744414433480504	0.2722534777656109	0.06226349853172681	-0.176156155615167	-0.05766802097987374	-0.2766740339219183	1.165097706676133	-0.006588662971305557	0.2193911004146212	-0.5791874281615349	1.506442445114285	1.50644244511428	-0.2709595397568199	-0.0003230393585029968	0.6021764132916655	0.1681539185528309	-0.06193355083083313	-0.008702966320352208	0.007092692611958244	-0.3355390935645622	0.047422460731558	-0.01519092694835942	0.1279876742898599	-33.44971213094182	-27.66133976530074	-7.920401745653026	-2.298352981225032	5.805844289418116	-678.5484582567863	54.05016037061584	0.0502627686795987	0.214823377383207	-0.2364539668842062	-0.9012454555676276	-0.06220082234430396	-0.5498392851103525	1.22653601548556	-1.224914792763394	-1.224914792763393	0.3636095916967009	0.002663911809646415	-0.5024723070379632	-0.08076761937448163	-8.388517341644197e-08	-1.125104762682413e-07	4.40276417418003e-07	-1.003585725677211e-06	1.760774633095182e-08	-1.293510442706836e-07	7.711732080786937e-07
0.53	-0.07286129571731685	0.06380023496206413	0.86927098948043	0.6436823357505842	-0.2280297735598612	-0.1390251103258631	-0.3246805025322232	0.6769651989697473	0.6769651989697959	0.03662671854736827	0.1744382754512031	0.2782490657861186	0.06393975700414288	-0.1756095065549544	-0.055511966933126	-0.2788616001097774	1.155636285182635	-0.007342792909376843	0.214105015536701	-0.5666908245133714	1.493570090058662	1.493570090058657	-0.2668776463764236	-0.0003163279950473924	0.5968554490981229	0.1670640557989628	-0.06645374123143208	-0.00712239102824825	0.007725553532907801	-0.3379512473848204	0.04273296104241595	-0.01446258100710801	0.1322176441006786	-32.62813844824437	-29.27545978841673	-7.994802316583415	-2.163014477498323	6.493214414491613	-681.2035156598423	53.93709154225619	0.06039872075789934	0.2162990648096197	-0.2005410862541832	-0.9917645831554585	-0.08250150792253018	-0.51647442095909	1.271164262508568	-1.349751755162762	-1.349751755162566	0.4356425037713303	-0.001361960987036239	-0.5597762895007934	-0.1282043533928565	-7.159239233445902e-08	-8.016201016342743e-08	4.802408836685453e-07	-7.426498517481248e-07	-6.394599213016038e-09	-9.174897151320507e-08	6.611479314405046e-07
0.54	-0.07461406907310411	0.06325594612818775	0.8664729959624401	0.6551875287401002	-0.2281070570444051	-0.1369102422617328	-0.3302832708053645	0.6918313126507892	0.691831312650581	0.03397921216172007	0.1744349673259184	0.2841888706018951	0.06560409509902224	-0.1749215476522993	-0.05334380702606482	-0.280674491958593	1.145247900212565	-0.008116219982843136	0.2088796773857647	-0.5537965519443163	1.479443499274994	1.479443499274989	-0.2625892212936351	-0.0003510850155951785	0.5910197723450662	0.1657698430451042	-0.07097393163193554	-0.005541815736059759	0.008358414452462035	-0.340363401205052	0.03804346135329485	-0.01373423506570008	0.1364476139115723	-31.79280918976486	-30.89724422120159	-8.067268197823262	-2.031727675095109	7.175887593033024	-683.9834250602328	53.88605099096376	0.07852473716603389	0.2172445494478711	-0.1615190990754118	-1.086638150882428	-0.06606024942367712	-0.5376899397136935	1.306069799662933	-1.475761938373071	-1.47576193837307	0.4049159321757468	-0.005629764990850662	-0.6054148189386187	-0.1216376193722528	-5.243054323880736e-08	-1.830315482652197e-08	6.202697150644827e-07	-2.428522218263708e-07	-5.902740579388097e-08	-2.306537769169963e-08	4.935119382737743e-07
0.55	-0.07635927665535203	0.0627334200296778	0.8636587857949788	0.666584290325114	-0.2281917304270565	-0.1348488951459106	-0.3357552319130295	0.7065499951038637	0.7065499951038132	0.03137386234364171	0.1744319093732589	0.2900679824038689	0.067255144804648	-0.1740986480031103	-0.05115623282406676	-0.282102213837076	1.13394998080462	-0.008824250142236402	0.2034254601520937	-0.5405391888652438	1.464091804692734	1.464091804692728	-0.2584280676931904	-0.0002812235894628352	0.5847263227372994	0.1644026194642661	-0.07512787498967091	-0.004336299182138484	0.009008596270790262	-0.3433357907081246	0.03425096741137524	-0.0130907988987292	0.140409795683868	-30.94791064995729	-32.23285964189549	-8.129407807645364	-1.898770619378563	7.630414711972721	-686.7551519266071	53.93247244383556	0.08737057476021605	0.2202732914302504	-0.1235966977335526	-1.174532954646545	-0.07398053524155393	-0.5439689362594039	1.344041667735413	-1.595042822433897	-1.595042822433923	0.4297152064561049	0.01020474207891647	-0.6527682121282776	-0.1497736148548982	-3.559105892572316e-08	4.095019907691329e-08	7.739868551193144e-07	2.267310131812031e-07	-1.122425410701792e-07	4.48046278117611e-08	3.609427434860007e-07
0.5600000000000001	-0.07809561564185759	0.06223292156036214	0.8608322588156307	0.6778634398923323	-0.2282836453384777	-0.1328410264666591	-0.3410929249687514	0.7211091266903379	0.7211091266902901	0.02881172408806454	0.1744289321639397	0.2958818680736806	0.06889142049698554	-0.1731478285155008	-0.0489382811872083	-0.2831378543358186	1.121725496640839	-0.009564525743463077	0.1981839900758273	-0.5269429415581016	1.447533325939209	1.447533325939201	-0.25394690879368	-0.0003349363367762954	0.5779745459122522	0.1628150403868218	-0.07928181834727797	-0.003130782628108026	0.009658778088456327	-0.3463081802111875	0.03045847346946975	-0.01244736273160664	0.144371977456269	-30.10060495443587	-33.57470422431157	-8.190745992276932	-1.768102080437916	8.0849904788549	-689.6264020056808	54.001265766335	0.1041087048481706	0.2233200364218462	-0.08310282312721172	-1.271951102050138	-0.07250933779072449	-0.4951405082329179	1.373846645275956	-1.717118772626888	-1.71711877262687	0.4689169919894621	-0.03034459967983246	-0.6970802623926355	-0.165708718693194	-2.153841235171987e-08	9.70769512601844e-08	9.441299655648189e-07	6.600569742917619e-07	-1.661564707809973e-07	1.116983273335682e-07	2.704537067529739e-07
0.5700000000000001	-0.07982187875335954	0.06175471026007919	0.8579973444282701	0.6890159689151116	-0.2283827054062034	-0.1308864314662458	-0.3462929426527772	0.7354967954680441	0.7354967954679905	0.02629401470598724	0.174425849712044	0.301626109168818	0.07051136621979688	-0.1720817447322435	-0.04670227847665514	-0.283777531983099	1.108630615475229	-0.01024919486432654	0.192752517600141	-0.5130112947638487	1.429806218814101	1.429806218814108	-0.2495620307338546	-0.0002913759462374481	0.5707997594325562	0.1611419260471214	-0.08341216219658222	-0.001858193715681962	0.01024197267428555	-0.3491257527767893	0.02649208866510569	-0.01180255453636809	0.1482910214774249	-29.25216122963688	-34.97246793120904	-8.260418556825277	-1.637088880530885	8.608233765423199	-692.466554731034	54.04406483080017	0.1113237756955808	0.2239561217324371	-0.04424665477523131	-1.350697098950102	-0.06646323890910151	-0.5644799759581323	1.4102187662492	-1.829635584989823	-1.829635584987451	0.4284019787604417	0.02041882204529208	-0.7387950093411143	-0.1726693544558492	-1.100055620086222e-08	1.340410942087944e-07	1.041751657822665e-06	9.426307911910218e-07	-2.003314191971846e-07	1.552546321461901e-07	2.127739455098488e-07
